# xmcd CD database file
#
# Track frame offsets:
#	151
#	16005
#	33110
#	47750
#	69905
#	89329
#	104325
#	120871
#	139389
#	149948
#	163491
#	178153
#	197579
#	209140
#	231257
#	246547
#	257112
#	278890
#	293492
#	305658
#	322274
#
# Disc length: 4447 seconds
#
# Revision: 1
# Processed by: cddbd v1.4b41PL1 Copyright (c) Steve Scherf et al.
# Submitted via: CDValet v3.31 - Copyright (c) 1997 Greg Leichner
#
DISCID=4b115d15
DTITLE=The Del MCCoury Band - 99-10-23 - The Ritz Raleigh, NC
DYEAR=1900
DGENRE=
TTITLE0=Blue Ridge Home
TTITLE1=She's Left Me Again
TTITLE2=Red Eyes On A Mad Dog
TTITLE3=Don't You Think It's Time To Leave
TTITLE4=Nashville Cats
TTITLE5=Back Up and Push
TTITLE6=Body and Soul
TTITLE7=Backslidin' Blues
TTITLE8=Beauty Of My Dreams
TTITLE9=Cold Rain and Snow
TTITLE10=Smokin' Gun
TTITLE11=Get Down On Your Knees and Pray
TTITLE12=Rollin' In My Sweet Baby's Arms
TTITLE13=Walk Out In The Rain
TTITLE14=Eli Renfro
TTITLE15=???
TTITLE16=Henry Walker
TTITLE17=Loggin' Man
TTITLE18=E: Snake In The House
TTITLE19=E:  I Feel The Blues Movin' In
TTITLE20=E:  White House Blues
EXTD=
EXTT0=
EXTT1=
EXTT2=
EXTT3=
EXTT4=
EXTT5=
EXTT6=
EXTT7=
EXTT8=
EXTT9=
EXTT10=
EXTT11=
EXTT12=
EXTT13=
EXTT14=
EXTT15=
EXTT16=
EXTT17=
EXTT18=
EXTT19=
EXTT20=
PLAYORDER=
